<?xml version="1.0" encoding="utf-8"?>
<!-- Generator: Adobe Illustrator 25.4.1, SVG Export Plug-In . SVG Version: 6.00 Build 0)  -->
<svg version="1.1" id="레이어_1" xmlns="http://www.w3.org/2000/svg" xmlns:xlink="http://www.w3.org/1999/xlink" x="0px"
	 y="0px" viewBox="0 0 100 100" style="enable-background:new 0 0 100 100;" xml:space="preserve">
<style type="text/css">
	.st0{fill:none;}
	.st1{fill:#5BD3C4;}
</style>
<g id="그룹_4963" transform="translate(-1343 -1049)">
	<g id="사각형_1849">
		<rect x="1362.1" y="1057" class="st0" width="60" height="60"/>
	</g>
	<g id="그룹_4955" transform="translate(-105.957 1569.125)">
		<g id="패스_734">
			<path class="st1" d="M1489.2-462.3c0.5,0,0.9-0.4,0.9-0.9c0,0,0,0,0,0v-38.7c0-0.5-0.4-0.9-0.9-0.9l0,0h-7.6
				c-0.5,0-0.9,0.4-0.9,0.9c0,0,0,0,0,0v38.7c0,0.5,0.4,0.9,0.9,0.9l0,0H1489.2z M1482.5-501h5.8v36.9h-5.8V-501z"/>
		</g>
		<g id="패스_735">
			<path class="st1" d="M1495.1-495.6h13c0.5,0,0.9-0.4,0.9-0.9c0,0,0,0,0,0v-5.4c0-0.5-0.4-0.9-0.9-0.9l0,0h-13
				c-0.5,0-0.9,0.4-0.9,0.9c0,0,0,0,0,0v5.4C1494.2-496,1494.6-495.6,1495.1-495.6L1495.1-495.6z M1496-501h11.2v3.6H1496V-501z"/>
		</g>
		<g id="패스_736">
			<path class="st1" d="M1494.2-485.7c0,0.5,0.4,0.9,0.9,0.9l0,0h13c0.5,0,0.9-0.4,0.9-0.9c0,0,0,0,0,0v-5.4c0-0.5-0.4-0.9-0.9-0.9
				l0,0h-13c-0.5,0-0.9,0.4-0.9,0.9c0,0,0,0,0,0V-485.7z M1496-490.2h11.2v3.6H1496V-490.2z"/>
		</g>
		<g id="패스_737">
			<path class="st1" d="M1494.2-474.9c0,0.5,0.4,0.9,0.9,0.9l0,0h13c0.5,0,0.9-0.4,0.9-0.9c0,0,0,0,0,0v-5.4c0-0.5-0.4-0.9-0.9-0.9
				l0,0h-13c-0.5,0-0.9,0.4-0.9,0.9c0,0,0,0,0,0V-474.9z M1496-479.4h11.2v3.6H1496V-479.4z"/>
		</g>
		<g id="패스_738">
			<path class="st1" d="M1494.2-464.1c0,0.5,0.4,0.9,0.9,0.9l0,0h13c0.5,0,0.9-0.4,0.9-0.9c0,0,0,0,0,0v-5.4c0-0.5-0.4-0.9-0.9-0.9
				l0,0h-13c-0.5,0-0.9,0.4-0.9,0.9c0,0,0,0,0,0V-464.1z M1496-468.6h11.2v3.6H1496V-468.6z"/>
		</g>
		<g id="패스_739">
			<path class="st1" d="M1523-503.7h-6.4c-0.5-3.1-3.2-5.4-6.4-5.4h-30.7c-3.6,0-6.5,2.9-6.5,6.5v39.9c0,0.5,0.4,0.9,0.9,0.9l0,0
				c0.5,0,0.9-0.4,0.9-0.9c0,0,0,0,0,0v-39.9c0-2.6,2.1-4.7,4.7-4.7h30.7c2.6,0,4.7,2.1,4.7,4.7v39.9c0,0.5,0.4,0.9,0.9,0.9l0,0
				c0.5,0,0.9-0.4,0.9-0.9c0,0,0,0,0,0v-16.6h6.3c0.5,0,0.9-0.4,0.9-0.9c0,0,0,0,0,0v-22.5C1523.9-503.3,1523.5-503.7,1523-503.7z
				 M1522.1-481.2h-5.4v-20.7h5.4V-481.2z"/>
		</g>
		<g id="패스_740">
			<path class="st1" d="M1523-458.3h-49c-0.5,0-0.9,0.4-0.9,0.9c0,0,0,0,0,0c0,0.5,0.4,0.9,0.9,0.9l0,0h49c0.5,0,0.9-0.4,0.9-0.9
				c0,0,0,0,0,0C1523.9-457.9,1523.5-458.3,1523-458.3L1523-458.3z"/>
		</g>
	</g>
</g>
<g>
	<path class="st1" d="M38.9,87.3v-1.1h4.2v-1.1c-0.9-0.1-1.5-0.3-2-0.6s-0.7-0.8-0.7-1.3c0-0.6,0.3-1.1,0.9-1.4
		c0.6-0.4,1.4-0.5,2.5-0.5c1,0,1.9,0.2,2.5,0.5c0.6,0.4,0.9,0.8,0.9,1.4c0,0.5-0.2,1-0.7,1.3s-1.2,0.5-2.1,0.6v1.1h4.3v1.1H38.9z
		 M39.8,80.8v-1.1h8.1v1.1H39.8z M41.7,79.1v-1h4.2v1H41.7z M43.8,84.1c0.6,0,1.2-0.1,1.5-0.2s0.6-0.4,0.6-0.7
		c0-0.3-0.2-0.5-0.6-0.7s-0.9-0.2-1.6-0.2c-1.4,0-2.1,0.3-2.1,0.9c0,0.3,0.2,0.5,0.6,0.7C42.6,84.1,43.1,84.1,43.8,84.1z"/>
	<path class="st1" d="M50.1,83.2v-2.5c0-0.9,0-1.7-0.1-2.5h3.9v1h-2.5v0.9h2.3v1h-2.3v1H52c1,0,1.9-0.1,2.6-0.2v1
		c-0.7,0.2-1.6,0.3-2.8,0.3H50.1z M52.7,86.6v0.9h6v1h-7.4v-0.9c0-0.7,0-1.3-0.1-1.9h5.9V85h-5.8v-1h7.2v2.6H52.7z M54,81.1V80h1.2
		c0-0.7,0-1.4-0.1-1.9h1.3v5.4h-1.2v-2.4H54z M57.3,83.5v-3.2c0-1,0-1.8-0.1-2.4h1.3v5.6H57.3z"/>
</g>
</svg>
