<?xml version="1.0" encoding="utf-8"?>
<!-- Generator: Adobe Illustrator 25.4.1, SVG Export Plug-In . SVG Version: 6.00 Build 0)  -->
<svg version="1.1" id="레이어_1" xmlns="http://www.w3.org/2000/svg" xmlns:xlink="http://www.w3.org/1999/xlink" x="0px"
	 y="0px" viewBox="0 0 100 100" style="enable-background:new 0 0 100 100;" xml:space="preserve">
<style type="text/css">
	.st0{fill:none;}
	.st1{fill:#5BD3C4;}
</style>
<g id="그룹_4959" transform="translate(-871 -1049)">
	<g id="사각형_1843">
		<rect x="890" y="1057" class="st0" width="60" height="60"/>
	</g>
	<g id="그룹_4952" transform="translate(191.02 1569.299)">
		<g id="패스_722">
			<path class="st1" d="M753-496.6v37.2c0,1.3-1,2.3-2.3,2.3h-42.6c-1.3,0-2.3-1-2.3-2.3v-37.2H704v37.2c0,2.3,1.9,4.1,4.1,4.1h42.6
				c2.3,0,4.1-1.9,4.1-4.1v-37.2H753z"/>
		</g>
		<g id="패스_723">
			<path class="st1" d="M708.9-462c0.2,0.1,0.3,0.2,0.5,0.2c0.1,0,0.2,0,0.3-0.1c0.1,0,8.2-2.8,19.5,0c0,0,0,0,0,0s0.1,0,0.1,0
				c0,0,0.1,0,0.1,0c0,0,0.1,0,0.1,0c0,0,0.1,0,0.1,0c0,0,0,0,0.1,0c0.1,0,8.3-2.8,19.5,0c0.1,0,0.1,0,0.2,0c0.2,0,0.4-0.1,0.6-0.2
				c0.2-0.2,0.3-0.4,0.3-0.7V-500c0-0.4-0.2-0.7-0.6-0.8c-1.1-0.5-2.3-0.9-3.5-1.2v-7.4c0-0.3-0.2-0.6-0.5-0.8
				c-0.3-0.2-0.6-0.2-0.9,0l-15.7,9.1c-11.3-4.4-19.9,0-20.3,0.2c-0.3,0.2-0.5,0.5-0.5,0.8v37.3C708.5-462.5,708.6-462.2,708.9-462z
				 M745.9-473.6c0.2-0.2,0.4-0.4,0.4-0.7v-25.8c0.8,0.2,1.5,0.5,2.2,0.7v35.5c-5.1-1.2-10.4-1.4-15.6-0.6L745.9-473.6z
				 M730.5-499.7l13.9-8.1v33.1l-13.9,9.7V-499.7z M710.3-499.4c5.9-2.3,12.4-2.3,18.2,0v35.5c-3.1-0.7-6.3-1.1-9.5-1.1
				c-2.9,0-5.9,0.3-8.7,1V-499.4z"/>
		</g>
	</g>
</g>
<g>
	<path class="st1" d="M39.2,80.4v-1h6.1v1H39.2z M42.3,84.5c-0.8,0-1.5-0.2-2-0.5c-0.5-0.3-0.7-0.8-0.7-1.3c0-0.5,0.2-1,0.7-1.3
		s1.1-0.5,2-0.5c0.8,0,1.5,0.2,2,0.5c0.5,0.3,0.7,0.8,0.7,1.3c0,0.5-0.2,1-0.7,1.3S43.1,84.5,42.3,84.5z M47.6,88.6h-1.3v-2.3h-5.8
		v-1.1h7.1V88.6z M43.9,77.8v1h-3.3v-1H43.9z M42.3,83.6c0.4,0,0.8-0.1,1-0.2c0.3-0.2,0.4-0.4,0.4-0.6c0-0.3-0.1-0.5-0.4-0.6
		s-0.6-0.2-1-0.2c-0.4,0-0.8,0.1-1,0.2s-0.4,0.4-0.4,0.6c0,0.3,0.1,0.5,0.4,0.6C41.5,83.5,41.9,83.6,42.3,83.6z M46.3,84.7v-4.4
		c0-0.8,0-1.7-0.1-2.4h1.3v2.9H49v1.2h-1.4v2.8H46.3z"/>
	<path class="st1" d="M49.4,87.2v-1.1h2.3v-0.9c0-1.3,0-2.2,0-2.7H53v3.6h1.2v-1.2c0-1.1,0-1.9,0-2.4h1.3v3.6h3.8v1.1H49.4z
		 M50.6,79.6v-1.1h7.5c0,1-0.1,2.2-0.2,3.4c-0.1,1.2-0.3,2.1-0.4,2.9h-1.3c0.2-0.7,0.3-1.5,0.4-2.5c0.1-1,0.2-1.9,0.2-2.6H50.6z"/>
</g>
</svg>
