<?xml version="1.0" encoding="utf-8"?>
<!-- Generator: Adobe Illustrator 25.4.1, SVG Export Plug-In . SVG Version: 6.00 Build 0)  -->
<svg version="1.1" id="레이어_1" xmlns="http://www.w3.org/2000/svg" xmlns:xlink="http://www.w3.org/1999/xlink" x="0px"
	 y="0px" viewBox="0 0 100 100" style="enable-background:new 0 0 100 100;" xml:space="preserve">
<style type="text/css">
	.st0{fill:none;}
	.st1{fill:#5BD3C4;}
</style>
<g id="그룹_4962" transform="translate(-1225 -1049)">
	<g id="사각형_1847">
		<rect x="1244.3" y="1057.7" class="st0" width="60" height="60"/>
	</g>
	<g id="그룹_4954" transform="translate(-70.341 1570.356)">
		<g id="패스_732">
			<path class="st1" d="M1369.7-503.1c-2.9-2.9-6.8-4.5-10.8-4.5c-4.1,0-8,1.6-10.8,4.5l-3.1,3l-3.1-3c-2.9-2.9-6.8-4.5-10.8-4.5
				c-4.1,0-8,1.6-10.8,4.5c-3.3,3.3-4.9,8-4.4,12.7c0.1,0.5,0.5,0.9,1,0.8c0,0,0,0,0,0c0.5-0.1,0.9-0.5,0.8-1c0,0,0,0,0,0
				c-0.5-4.1,1-8.3,3.9-11.2c2.5-2.6,6-4,9.6-4c3.6,0,7,1.4,9.6,4l3.7,3.6c0.3,0.3,0.9,0.3,1.3,0l3.8-3.7c2.5-2.6,6-4,9.6-4
				c3.6,0,7,1.4,9.6,4c5.3,5.4,5.3,14,0,19.4l-23.5,23.8l-19.7-20c-0.3-0.4-0.9-0.4-1.3,0c0,0,0,0,0,0c-0.4,0.3-0.4,0.9,0,1.3
				l20.4,20.6c0.2,0.2,0.4,0.3,0.6,0.3c0.2,0,0.5-0.1,0.6-0.3l24.1-24.4C1375.6-487.3,1375.6-497.1,1369.7-503.1z"/>
		</g>
		<g id="패스_733">
			<path class="st1" d="M1330.3-484.8l1.8-2.1l4.8,10.4c0.1,0.3,0.5,0.5,0.9,0.5c0.4,0,0.7-0.2,0.8-0.6l4.9-13.7l5.5,17.3
				c0.1,0.3,0.4,0.6,0.7,0.6c0,0,0.1,0,0.1,0c0.3,0,0.6-0.2,0.8-0.4l6.7-10.3c0.3-0.4,0.2-1-0.3-1.2c-0.4-0.3-1-0.2-1.2,0.3
				l-5.7,8.8l-5.7-18c-0.1-0.4-0.5-0.6-0.8-0.6c-0.4,0-0.7,0.2-0.9,0.6l-5.1,14.1l-4.5-9.7c-0.1-0.3-0.4-0.5-0.7-0.5
				c-0.3,0-0.6,0.1-0.8,0.3l-2.4,2.8h-9c-0.5,0-0.9,0.4-0.9,0.9c0,0,0,0,0,0c0,0.5,0.4,0.9,0.9,0.9l0,0h9.4
				C1329.9-484.5,1330.1-484.6,1330.3-484.8z"/>
		</g>
	</g>
</g>
<g>
	<path class="st1" d="M39.4,87v-1.1h2.2c1.9,0,3.5-0.1,4.8-0.4v1.1c-1.4,0.3-3.1,0.4-4.9,0.4H39.4z M39.9,81.6
		c0-0.8,0.3-1.4,0.8-1.9c0.5-0.5,1.2-0.8,2.1-0.8c0.9,0,1.6,0.3,2.1,0.8c0.5,0.5,0.8,1.2,0.8,1.9c0,0.8-0.3,1.4-0.8,1.9
		c-0.5,0.5-1.2,0.8-2.1,0.8c-0.9,0-1.6-0.3-2.1-0.8C40.1,83,39.9,82.4,39.9,81.6z M41.2,81.6c0,0.5,0.1,0.9,0.4,1.2
		c0.3,0.3,0.7,0.5,1.2,0.5c0.5,0,0.9-0.2,1.2-0.5c0.3-0.3,0.4-0.7,0.4-1.2c0-0.5-0.1-0.9-0.4-1.2c-0.3-0.3-0.7-0.5-1.2-0.5
		c-0.5,0-0.9,0.2-1.2,0.5C41.3,80.8,41.2,81.1,41.2,81.6z M46.9,89.3v-8.3c0-1,0-1.8-0.1-2.4h1.4v10.7H46.9z"/>
	<path class="st1" d="M49.7,87.9v-1.1h2.5v-1.7H51v-1.2c0-1,0-1.8-0.1-2.3h5.8v-1.4H51v-1.1h7.1v3.5h-5.8V84h6.1v1.1h-1.5v1.7h2.5
		v1.1H49.7z M53.5,85.1v1.7h2.3v-1.7H53.5z"/>
</g>
</svg>
