<?xml version="1.0" encoding="utf-8"?>
<!-- Generator: Adobe Illustrator 25.4.1, SVG Export Plug-In . SVG Version: 6.00 Build 0)  -->
<svg version="1.1" id="레이어_1" xmlns="http://www.w3.org/2000/svg" xmlns:xlink="http://www.w3.org/1999/xlink" x="0px"
	 y="0px" viewBox="0 0 100 100" style="enable-background:new 0 0 100 100;" xml:space="preserve">
<style type="text/css">
	.st0{fill:none;}
	.st1{fill:#5BD3C4;}
</style>
<g id="Group_5398" transform="translate(-517 -1049)">
	<g id="Rectangle_1848">
		<rect x="536" y="1057" class="st0" width="60" height="60"/>
	</g>
	<g id="Path_2466">
		<path class="st1" d="M591.6,1085.8h-2.9c-0.5-11.9-10.1-21.5-22-22v-2.9c0-0.5-0.4-1-1-1c-0.5,0-1,0.4-1,1v2.9
			c-11.9,0.5-21.5,10.1-22,22H540c-0.5,0-1,0.4-1,1c0,0.5,0.4,1,1,1h2.9c0.5,11.9,10.1,21.5,22,22v2.9c0,0.5,0.4,1,1,1
			c0.5,0,1-0.4,1-1v-2.9c11.9-0.5,21.5-10.1,22-22h2.9c0.5,0,1-0.4,1-1C592.5,1086.2,592.1,1085.8,591.6,1085.8L591.6,1085.8z
			 M586.8,1085.8H585c-0.5-9.9-8.4-17.8-18.3-18.3v-1.8C577.6,1066.3,586.3,1075,586.8,1085.8L586.8,1085.8z M579.8,1083.3
			c-0.5,0-1,0.4-1,1v1.6h-5.7v-0.7c0-0.5-0.4-1-1-1c-0.5,0-1,0.4-1,1l0,0v0.7h-1.9c-0.5,0-1,0.4-1,1c0,0.5,0.4,1,1,1l0,0h1.9v0.7
			c0,0.5,0.4,1,1,1s1-0.4,1-1v-0.7h5.7v1.6c0,0.5,0.4,1,1,1s1-0.4,1-1v-1.6h2.4c-0.5,8.8-7.5,15.9-16.4,16.4v-2.4h1.6
			c0.5,0,1-0.4,1-1c0-0.5-0.4-1-1-1h-1.6v-5.7h0.7c0.5,0,1-0.4,1-1c0-0.5-0.4-1-1-1h-0.7v-1.9c0-0.5-0.4-1-1-1c-0.5,0-1,0.4-1,1l0,0
			v1.9h-0.7c-0.5,0-1,0.4-1,1c0,0.5,0.4,1,1,1h0.7v5.7h-1.6c-0.5,0-1,0.4-1,1c0,0.5,0.4,1,1,1h1.6v2.4c-8.8-0.5-15.9-7.5-16.4-16.4
			h2.4v1.6c0,0.5,0.4,1,1,1c0.5,0,1-0.4,1-1v-1.6h5.7v0.7c0,0.5,0.4,1,1,1c0.5,0,1-0.4,1-1v-0.7h1.9c0.5,0,1-0.4,1-1s-0.4-1-1-1
			h-1.9v-0.7c0-0.5-0.4-1-1-1c-0.5,0-1,0.4-1,1v0.7h-5.7v-1.6c0-0.5-0.4-1-1-1c-0.5,0-1,0.4-1,1v1.6h-2.4
			c0.5-8.8,7.5-15.9,16.4-16.4v2.4h-1.6c-0.5,0-1,0.4-1,1c0,0.5,0.4,1,1,1h1.6v5.7h-0.7c-0.5,0-1,0.4-1,1s0.4,1,1,1l0,0h0.7v1.9
			c0,0.5,0.4,1,1,1c0.5,0,1-0.4,1-1v-1.9h0.7c0.5,0,1-0.4,1-1s-0.4-1-1-1h-0.7v-5.7h1.6c0.5,0,1-0.4,1-1s-0.4-1-1-1l0,0h-1.6v-2.4
			c8.8,0.5,15.9,7.5,16.4,16.4h-2.4v-1.6C580.7,1083.7,580.3,1083.3,579.8,1083.3C579.8,1083.3,579.8,1083.3,579.8,1083.3
			L579.8,1083.3z M564.8,1065.8v1.8c-9.9,0.5-17.8,8.4-18.3,18.3h-1.8C545.3,1075,554,1066.3,564.8,1065.8L564.8,1065.8z
			 M544.8,1087.7h1.8c0.5,9.9,8.4,17.8,18.3,18.3v1.8C554,1107.3,545.3,1098.6,544.8,1087.7L544.8,1087.7z M566.7,1107.8v-1.8
			c9.9-0.5,17.8-8.4,18.3-18.3h1.8C586.3,1098.6,577.6,1107.3,566.7,1107.8z"/>
	</g>
</g>
<g>
	<path class="st1" d="M34,83.4v-1.1H41c0.2-1.2,0.4-2.2,0.4-3h-6.2v-1.1h7.5c0,1.3-0.2,2.6-0.5,4.1h1.6v1.1h-4.1V86h-1.3v-2.6H34z
		 M35.4,88.3v-1.2c0-0.8,0-1.6-0.1-2.3h1.4v2.4H43v1.1H35.4z"/>
	<path class="st1" d="M45.5,78.5h4.9c0,1.1-0.2,2.1-0.6,3.1c-0.4,1-0.9,1.9-1.6,2.8c-0.7,0.8-1.5,1.5-2.5,2l-1-0.8
		c0.9-0.4,1.6-1,2.3-1.6c0.6-0.7,1.1-1.4,1.4-2.1c0.3-0.7,0.5-1.5,0.6-2.2h-3.5V78.5z M52.3,88.6v-8.3c0-1,0-1.8-0.1-2.4h1.4v10.7
		H52.3z"/>
	<path class="st1" d="M55.3,84.3v-1.1h2v-0.5c0-0.8,0-1.3-0.1-1.7h1.3v2.2c1.5,0,2.7-0.1,3.6-0.3V84c-1.3,0.2-3,0.3-5.2,0.3H55.3z
		 M60.8,82.3h-1.2c0.1-0.4,0.2-0.9,0.3-1.5c0.1-0.6,0.1-1.1,0.1-1.4h-4.1v-1.1h5.4c0,0.6,0,1.3-0.1,2.1C61.1,81.2,61,81.8,60.8,82.3
		z M56.9,88.3v-1.1c0-0.7,0-1.4-0.1-2.1h1.4v2.1h5.9v1.1H56.9z M62.5,85.9v-5.5c0-1,0-1.8-0.1-2.4h1.3v3.3h1.4v1.2h-1.4v3.5H62.5z"
		/>
</g>
</svg>
