<?xml version="1.0" encoding="utf-8"?>
<!-- Generator: Adobe Illustrator 25.4.1, SVG Export Plug-In . SVG Version: 6.00 Build 0)  -->
<svg version="1.1" id="레이어_1" xmlns="http://www.w3.org/2000/svg" xmlns:xlink="http://www.w3.org/1999/xlink" x="0px"
	 y="0px" viewBox="0 0 100 100" style="enable-background:new 0 0 100 100;" xml:space="preserve">
<style type="text/css">
	.st0{fill:none;}
	.st1{fill:#5BD3C4;}
</style>
<g id="그룹_4958" transform="translate(-753 -1049)">
	<g id="사각형_1844">
		<rect x="772" y="1057" class="st0" width="60" height="60"/>
	</g>
	<g id="그룹_4951" transform="translate(226.133 1569.801)">
		<g id="패스_717">
			<path class="st1" d="M550.5-455.8h9v-18h-9V-455.8z M552.3-472h5.4v14.4h-5.4V-472z"/>
		</g>
		<g id="패스_718">
			<path class="st1" d="M578.4-455.8h9v-54h-9V-455.8z M580.2-508h5.4v50.4h-5.4V-508z"/>
		</g>
		<g id="패스_719">
			<path class="st1" d="M592.3-494.5v38.7h9v-38.7H592.3z M599.5-457.6h-5.4v-35.1h5.4V-457.6z"/>
		</g>
		<g id="패스_720">
			<path class="st1" d="M564.5-455.8h9v-30.6h-9V-455.8z M566.3-484.6h5.4v27h-5.4V-484.6z"/>
		</g>
		<g id="패스_721">
			<path class="st1" d="M567.1-501.7v1.8h3.7l-21,21l1.3,1.3l21-21v3.7h1.8v-6.7H567.1z"/>
		</g>
	</g>
</g>
<g>
	<path class="st1" d="M38.9,83.2v-1.1h7c0.2-1.1,0.4-2,0.4-2.8h-6.2v-1.1h7.5c0,1.1-0.2,2.4-0.5,3.9h1.6v1.1H38.9z M40.2,88.4v-1.9
		c0-0.7,0-1.4-0.1-2.1h7.3v4H40.2z M46.1,85.4h-4.7v2h4.7V85.4z"/>
	<path class="st1" d="M49.4,83.7v-1.1h9.8v1.1h-2.4v1.5c0.9,0.3,1.3,0.9,1.3,1.6c0,0.6-0.3,1.1-1,1.5c-0.7,0.3-1.6,0.5-2.8,0.5
		c-1.2,0-2.2-0.2-2.8-0.5c-0.7-0.3-1-0.8-1-1.5c0-0.7,0.4-1.3,1.3-1.6v-1.5H49.4z M54.4,81.9c-1.2,0-2.1-0.2-2.8-0.5
		c-0.7-0.4-1-0.9-1-1.5c0-0.6,0.3-1.2,1-1.5c0.7-0.4,1.6-0.6,2.8-0.6c1.2,0,2.1,0.2,2.8,0.6s1,0.9,1,1.5c0,0.6-0.3,1.1-1,1.5
		C56.5,81.8,55.5,81.9,54.4,81.9z M51.8,86.8c0,0.7,0.8,1,2.5,1c0.8,0,1.4-0.1,1.8-0.2c0.5-0.2,0.7-0.4,0.7-0.7c0-0.7-0.8-1-2.5-1
		C52.7,85.8,51.8,86.1,51.8,86.8z M54.4,80.9c0.8,0,1.4-0.1,1.8-0.3c0.4-0.2,0.7-0.4,0.7-0.8c0-0.7-0.8-1-2.5-1
		c-1.6,0-2.5,0.3-2.5,1C51.9,80.6,52.7,80.9,54.4,80.9z M54.4,84.8c0.4,0,0.8,0,1.3,0.1v-1.2h-2.5v1.2
		C53.4,84.8,53.9,84.8,54.4,84.8z"/>
</g>
</svg>
